<svg xmlns="http://www.w3.org/2000/svg" viewBox="0 0 64 64">
  <defs>
    <linearGradient id="bg" x1="0%" y1="0%" x2="100%" y2="100%">
      <stop offset="0%" stop-color="#00D4AA"/>
      <stop offset="100%" stop-color="#0A1F3E"/>
    </linearGradient>
  </defs>
  <!-- Rounded square background -->
  <rect width="64" height="64" rx="14" fill="url(#bg)"/>
  <!-- Stylised "S" path — crisp at all sizes -->
  <path d="M38.5 19.5C36.2 17.5 33.2 16.5 30 16.5c-5.5 0-10 3.5-10 8.2 0 3.5 2.2 6 7.5 7.8l3.5 1.2c3.8 1.3 5 2.8 5 5 0 3-2.8 5.3-6.5 5.3-3 0-5.5-1.2-7.2-3.5l-3.8 3.2c2.5 3.3 6.5 5.3 11 5.3 6 0 10.8-3.8 10.8-8.8 0-4-2.5-6.5-8-8.3l-3.3-1.1c-3.2-1.1-4.5-2.3-4.5-4.2 0-2.5 2.5-4.2 5.5-4.2 2.5 0 4.5 0.8 6.2 2.5l3.8-3z" fill="white"/>
</svg>
